<?xml version="1.0" encoding="UTF-8"?>
<svg version="1.1" xmlns="http://www.w3.org/2000/svg" width="1200" height="1200">
<path d="M0 0 C396 0 792 0 1200 0 C1200 396 1200 792 1200 1200 C804 1200 408 1200 0 1200 C0 804 0 408 0 0 Z " fill="#000000" transform="translate(0,0)"/>
<path d="M0 0 C17.52664652 -0.04707945 35.05327282 -0.08216249 52.57996845 -0.10362434 C60.72105863 -0.11386192 68.86210915 -0.12777502 77.00317383 -0.15087891 C84.11313715 -0.17104667 91.22307169 -0.18377075 98.33306283 -0.18817699 C102.08482859 -0.19074559 105.83651217 -0.19661775 109.58825111 -0.21146011 C134.20472065 -0.30492532 158.78976387 0.1407249 183 5 C183.88075195 5.16870605 184.76150391 5.33741211 185.66894531 5.51123047 C213.80391221 10.93594631 241.41153668 20.44683673 263 40 C263.95777344 40.84820312 264.91554688 41.69640625 265.90234375 42.5703125 C288.50282682 63.80779308 300.69830542 95.66728898 302.10786438 126.34777832 C302.16332693 128.80903805 302.19032034 131.26861864 302.203125 133.73046875 C302.21018463 134.63456985 302.21724426 135.53867096 302.22451782 136.47016907 C302.43703176 171.67482084 302.43703176 171.67482084 299.54785156 186.9765625 C298.86874442 190.72436234 298.29048334 194.48586672 297.7109375 198.25 C290.19321561 246.55455582 278.726012 295.13939823 249 335 C248.55156738 335.60392578 248.10313477 336.20785156 247.64111328 336.83007812 C240.97327059 345.7333409 233.72837358 354.00680494 226 362 C225.36868164 362.65323242 224.73736328 363.30646484 224.08691406 363.97949219 C216.10575889 372.19254533 208.03913468 379.946827 199 387 C196.17876405 389.2600867 193.37067677 391.53622272 190.5625 393.8125 C189.87542969 394.36446045 189.18835938 394.9164209 188.48046875 395.48510742 C185.14494395 398.17997745 181.95462751 400.87912746 179 404 C179.70125 404.556875 180.4025 405.11375 181.125 405.6875 C203.34944271 423.56368218 215.97504086 445.97711524 223.125 473.375 C223.36686035 474.27597412 223.6087207 475.17694824 223.85791016 476.10522461 C228.50203187 494.72150005 229.53110282 513.64557846 229.375 532.75 C229.36702393 534.32371872 229.36702393 534.32371872 229.35888672 535.92922974 C229.00180819 596.26119477 214.24066558 661.26096941 186.07275391 714.93994141 C184.93738254 717.12024717 183.83297938 719.31462921 182.73046875 721.51171875 C166.95359784 752.63224322 145.51785339 782.29474131 118 804 C117.03578125 804.78117188 116.0715625 805.56234375 115.078125 806.3671875 C81.13164168 833.33482527 40.64473271 848.14498575 -2 854 C-3.20425125 854.17093674 -4.4085025 854.34187347 -5.64924622 854.51799011 C-12.91841952 855.3117279 -20.23322005 855.1309081 -27.53540039 855.11352539 C-29.20173135 855.11324295 -30.86806243 855.11340236 -32.53439331 855.1139679 C-37.03579393 855.11425366 -41.53716766 855.10839265 -46.03856206 855.10139394 C-50.75108404 855.09512361 -55.4636067 855.0945537 -60.1761322 855.09336853 C-69.09003736 855.09026604 -78.00393019 855.08206728 -86.91782993 855.07201904 C-97.07020172 855.06082425 -107.2225741 855.05533898 -117.37495053 855.05032361 C-138.24997389 855.03988373 -159.12498617 855.0223053 -180 855 C-180.06385041 849.78921598 -179.58189809 845.06453206 -178.4609375 839.98828125 C-178.29977448 839.2312944 -178.13861145 838.47430756 -177.9725647 837.69438171 C-177.44672194 835.23226765 -176.91091779 832.77243879 -176.375 830.3125 C-176.0045493 828.58672988 -175.63476452 826.86081668 -175.265625 825.13476562 C-174.34961382 820.85859468 -173.42600264 816.58411007 -172.49987793 812.31011963 C-171.55881056 807.96110144 -170.62898327 803.60967762 -169.69775391 799.25854492 C-169.22961412 797.07230919 -168.76052671 794.88627617 -168.29052734 792.70043945 C-166.16442069 782.80641464 -164.08071838 772.9036434 -162 763 C-159.43077666 750.7720786 -156.84183165 738.54880076 -154.21655273 726.33276367 C-152.31807281 717.49558597 -150.4366439 708.65486287 -148.5625 699.8125 C-148.4162619 699.12255951 -148.2700238 698.43261902 -148.11935425 697.72177124 C-147.37643292 694.21640655 -146.6337262 690.71099644 -145.89111328 687.20556641 C-145.0100799 683.04706475 -144.12822457 678.88873773 -143.24609375 674.73046875 C-143.03003731 673.71199356 -143.03003731 673.71199356 -142.80961609 672.67294312 C-142.22670171 669.92522398 -141.64375023 667.17751272 -141.0607605 664.42980957 C-139.61899399 657.63455347 -138.1773699 650.83926863 -136.73880005 644.04333496 C-136.03451904 640.71632238 -135.3298443 637.38939328 -134.625 634.0625 C-134.48318298 633.39305359 -134.34136597 632.72360718 -134.19525146 632.03387451 C-132.43322988 623.71934292 -130.66051139 615.40717643 -128.875 607.09765625 C-128.69212936 606.24650742 -128.50925873 605.39535858 -128.32084656 604.51841736 C-128.13593155 603.65777176 -127.95101654 602.79712616 -127.76049805 601.91040039 C-124.03553465 584.57282346 -120.35934208 567.2259661 -116.73690796 549.8666687 C-114.27085939 538.04961951 -111.779506 526.23898234 -109.23754883 514.43798828 C-107.12790988 504.63168447 -105.06218062 494.81636613 -103 485 C-100.43084243 472.77206499 -97.84183156 460.54880035 -95.21655273 448.33276367 C-93.31807281 439.49558597 -91.4366439 430.65486287 -89.5625 421.8125 C-89.4162619 421.12255951 -89.2700238 420.43261902 -89.11935425 419.72177124 C-88.37643292 416.21640655 -87.6337262 412.71099644 -86.89111328 409.20556641 C-86.0100799 405.04706475 -85.12822457 400.88873773 -84.24609375 396.73046875 C-84.10205612 396.05148529 -83.95801849 395.37250183 -83.80961609 394.67294312 C-83.22670171 391.92522398 -82.64375023 389.17751272 -82.0607605 386.42980957 C-80.61899399 379.63455347 -79.1773699 372.83926863 -77.73880005 366.04333496 C-77.03451904 362.71632238 -76.3298443 359.38939328 -75.625 356.0625 C-75.41227448 355.05833038 -75.41227448 355.05833038 -75.19525146 354.03387451 C-73.43322988 345.71934292 -71.66051139 337.40717643 -69.875 329.09765625 C-69.69212936 328.24650742 -69.50925873 327.39535858 -69.32084656 326.51841736 C-69.13593155 325.65777176 -68.95101654 324.79712616 -68.76049805 323.91040039 C-65.03553465 306.57282346 -61.35934208 289.2259661 -57.73690796 271.8666687 C-55.27085939 260.04961951 -52.779506 248.23898234 -50.23754883 236.43798828 C-48.12790988 226.63168447 -46.06218062 216.81636613 -44 207 C-41.43084243 194.77206499 -38.84183156 182.54880035 -36.21655273 170.33276367 C-34.31807272 161.49558557 -32.43674653 152.65484132 -30.5625 143.8125 C-30.41559723 143.11956848 -30.26869446 142.42663696 -30.11734009 141.71270752 C-28.79493577 135.47467824 -27.47335421 129.23647486 -26.15283203 122.99804688 C-25.31065275 119.01943981 -24.46799941 115.04093337 -23.625 111.0625 C-23.41241043 110.05901016 -23.41241043 110.05901016 -23.19552612 109.0352478 C-21.43341482 100.72025797 -19.66060555 92.40763375 -17.875 84.09765625 C-17.60042213 82.81964142 -17.60042213 82.81964142 -17.32029724 81.51580811 C-17.04271324 80.22383514 -17.04271324 80.22383514 -16.75952148 78.90576172 C-16.38133473 77.14551059 -16.00316095 75.38525667 -15.625 73.625 C-15.43833771 72.75619202 -15.25167542 71.88738403 -15.05935669 70.99224854 C-11.62288905 54.98845021 -8.2560178 38.97049874 -4.91845703 22.94580078 C-4.73750992 22.07783371 -4.55656281 21.20986664 -4.37013245 20.31559753 C-4.03585711 18.71164019 -3.70209774 17.10757518 -3.3690033 15.50337219 C-2.58487016 11.74023757 -1.77939312 7.98301387 -0.94309998 4.23109436 C-0.67698489 3.03636049 -0.67698489 3.03636049 -0.40549374 1.81749058 C-0.20477434 0.91783274 -0.20477434 0.91783274 0 0 Z " fill="#FEFEFE" transform="translate(546,167)"/>
<path d="M0 0 C4.17674513 -0.1255612 8.35243101 -0.2152361 12.53051758 -0.2746582 C13.94542622 -0.29948116 15.36021121 -0.33335255 16.7746582 -0.37719727 C30.22198897 -0.78295627 41.71109803 1.85430936 52 11 C52.58007812 11.45375 53.16015625 11.9075 53.7578125 12.375 C67.02419424 23.79717621 71.69084431 45.52783849 73 62 C73.20658432 67.35000421 73.15714747 72.65174764 73 78 C72.98195313 79.18207031 72.96390625 80.36414063 72.9453125 81.58203125 C71.02926394 134.49878409 53.10179542 204.53276956 13.6328125 241.80078125 C-3.27541555 257.0778307 -23.07972058 262.15775215 -45.4609375 262.0390625 C-46.47696045 262.03624268 -47.4929834 262.03342285 -48.53979492 262.03051758 C-51.02655439 262.02320788 -53.51326466 262.012964 -56 262 C-45.44880384 209.56444982 -45.44880384 209.56444982 -40.9375 189.625 C-37.83996307 175.9238408 -34.91541553 162.19170053 -32.0625 148.4375 C-31.85233246 147.42460907 -31.64216492 146.41171814 -31.42562866 145.36813354 C-30.36657848 140.26197151 -29.30910781 135.15548394 -28.25244141 130.04882812 C-26.26089232 120.42645469 -24.25919974 110.80620284 -22.25 101.1875 C-22.06073944 100.28134949 -21.87147888 99.37519897 -21.67648315 98.44158936 C-19.35030338 87.31581597 -16.96772756 76.20645032 -14.45922852 65.12011719 C-12.64642084 57.04967865 -10.92686044 48.96118299 -9.22265625 40.8671875 C-8.97461243 39.6896843 -8.7265686 38.51218109 -8.4710083 37.29899597 C-7.20768661 31.29730317 -5.94852198 25.29476606 -4.69384766 19.29125977 C-4.22695329 17.06785739 -3.75999639 14.84446814 -3.29296875 12.62109375 C-3.07657242 11.5797226 -2.86017609 10.53835144 -2.63722229 9.46542358 C-2.43620407 8.51060089 -2.23518585 7.5557782 -2.02807617 6.57202148 C-1.85298019 5.73412582 -1.67788422 4.89623016 -1.4974823 4.03294373 C-1 2 -1 2 0 0 Z " fill="#000000" transform="translate(573,635)"/>
<path d="M0 0 C19.99759702 -0.38246131 39.98032076 -0.66519527 55.5625 13.8125 C68.84077006 28.84560751 73.38136514 46.16425405 73.20581055 65.76708984 C73.18759223 67.86438287 73.18530145 69.9612298 73.18554688 72.05859375 C73.15634334 83.99061197 72.38290978 95.50181336 69.875 107.1875 C69.65690674 108.21069336 69.43881348 109.23388672 69.21411133 110.28808594 C60.98847044 147.85670649 47.9370237 188.51360669 15.25 211.96484375 C9.44360039 215.60082235 3.32689172 218.37963497 -3 221 C-3.95060303 221.39650757 -3.95060303 221.39650757 -4.92041016 221.80102539 C-9.83413194 223.76057057 -14.65321089 224.88722371 -19.875 225.6875 C-20.68493408 225.81487549 -21.49486816 225.94225098 -22.3293457 226.07348633 C-30.8910823 227.30723034 -39.37222991 227.27831516 -48 227 C-47.40924855 221.03041733 -46.54684153 215.26008642 -45.2742157 209.40136719 C-45.10059079 208.58487796 -44.92696587 207.76838873 -44.7480796 206.9271574 C-44.17047009 204.21614972 -43.58659282 201.50653262 -43.00268555 198.796875 C-42.58501342 196.84293998 -42.16772622 194.88892264 -41.75079346 192.93482971 C-40.62035218 187.64219892 -39.48441367 182.35076179 -38.34738135 177.05954361 C-37.15445776 171.50411883 -35.96630343 165.94767405 -34.77754211 160.39135742 C-32.77891108 151.05307013 -30.776925 141.71550726 -28.77270508 132.37841797 C-26.46344777 121.62015556 -24.15840432 110.8609976 -21.85589188 100.10128975 C-19.39623564 88.60730215 -16.93392434 77.11388464 -14.47060418 65.62068176 C-13.76534522 62.32942378 -13.0605225 59.03807263 -12.35577965 55.7467041 C-11.24198477 50.54573799 -10.12636242 45.3451669 -9.00939941 40.14488029 C-8.60251769 38.249321 -8.19619338 36.35364195 -7.79050636 34.45782661 C-5.32508313 22.93902933 -2.74578786 11.45533991 0 0 Z " fill="#000000" transform="translate(646,292)"/>
</svg>
